<svg xmlns="http://www.w3.org/2000/svg" width="180" height="180" viewBox="0 0 2048 2048">
  <defs>
    <style>
      .cls-1 {
        fill: #505050;
      }

      .cls-2 {
        fill: #686868;
      }
    </style>
  </defs>
  <g id="s">
    <g id="s-extrusion">
      <path id="s-extrusion_4" class="cls-1" d="M1564.13,1485.44c-14.24-9.22-67.54-61.32-90.12-85.61-24.25-26.08-39.76-61.09-25-99.33,22.17-57.42,72.77-55.72,83.33-56.33,37.08-2.17,99.58,22.42,141.67,48.67,39.65,24.73,96.38,66.92,96.38,66.92l-17.87-40.42-244.15-230.68L1258,1474Z"/>
      <polygon id="s-extrusion_3" class="cls-2" points="1770.38 1359.75 1744.5 1326.17 1698.89 1278.76 1757 1148.83 1773.58 1141.35 1826.92 1185.5 1871.25 1233.58 1770.38 1359.75"/>
      <path id="s-extrusion_2" class="cls-2" d="M1672,1627.33l-113.33,324-406.33-181.5s-1.71-81.13-6.77-96.4C1200,1720.88,1252,1761,1285.83,1781.17c74.79,44.58,133.36,54.6,150.17,54.83,36.25.5,67.64-8.1,87.33-50.33,17.83-38.23,3-77.92-21.33-107-28.29-33.75-50.75-54.79-69-71.83Z"/>
      <polygon id="s-extrusion_1" class="cls-1" points="1178.54 1940.75 1133.25 1890.88 1097.79 1839.54 1145.57 1673.43 1160.75 1719.25 1189.9 1777.55 1190.75 1930.25 1178.54 1940.75"/>
    </g>
    <path id="s-foreground" d="M1709.7,1290l63.88-148.65c-82.42-36-178.76-70-284.25-65.69-64.83,2.67-148.86,16.74-204.67,64-88.67,75.08-96.17,179.58-79.33,248.33,30.63,125.08,124.39,166.08,154.67,184.33,13.23,8,20.52,11.12,108.5,60.83,62.76,35.46,73,43.08,97.17,73.83,2.43,3.09,32.33,40.5,4.5,98.5-19,39.55-68.38,44.67-105.83,45-57.58.5-97.11-10.32-163.33-34.83A950.89,950.89,0,0,1,1182,1762l-3.46,178.75c37.25,20,86.81,44.07,148.79,56.58,61.31,12.38,142.1,21.19,212,11,57.17-8.33,114.36-29.92,147.17-56.83,90.5-74.25,87.89-166.74,88.75-182.5.26-4.84,14.5-104-67.58-191.33-43.29-46.06-94.71-72.15-151.67-101.92-55.69-29.11-72.25-38.5-120-66.75-24.34-14.4-62-51.25-52.5-100.75,8.91-46.41,54.9-76.88,109.17-74.25,34.33,1.67,63,2,119.33,20.17C1650.21,1266.51,1686.59,1279.8,1709.7,1290Z"/>
  </g>
  <g id="v">
    <g id="v-extrusion">
      <polygon id="v-extrusion_2" class="cls-2" points="624.5 1828.75 832.08 1066.67 829.44 1059.06 740.25 1080.29 631.88 1610.13 620.42 1683.5 609.46 1777.98 624.5 1828.75"/>
      <polygon id="v-extrusion_1" class="cls-2" points="459.26 1831.75 142.77 1130.69 189 1056.02 199 1066.17 459.26 1831.75"/>
    </g>
    <polygon id="v-foreground" points="189 1056.02 391 1057 593.17 1684.92 611.83 1760.67 619.75 1792.75 623.58 1815.25 624.5 1814.25 628.58 1779.58 651.13 1674.75 664.5 1621 829.44 1059.06 1016.38 1059.75 733.22 1987.03 516.63 1998.21 189 1056.02"/>
  </g>
  <g id="m">
    <g id="m-extrusion">
      <polygon id="m-extrusion_4" class="cls-2" points="1495.99 42 1524.99 96 1499 995 1497.17 993.71 1487.13 46 1495.99 42"/>
      <polygon id="m-extrusion_3" class="cls-1" points="1082.01 995 1110.44 965.69 1326.19 352.65 1327.25 251.75 1306.83 251.75 1080.25 991.81 1082.01 995"/>
      <polygon id="m-extrusion_2" class="cls-2" points="1001.92 783 993.42 783 764.38 76 765.97 71.02 845.98 98.02 1022.9 717.2 1001.92 783"/>
      <polygon id="m-extrusion_1" class="cls-1" points="677.09 275.75 668.69 275.75 698.06 990.5 700.96 994.04 754.98 953.38 751.89 502.88 677.09 275.75"/>
    </g>
    <polygon id="m-foreground" points="700.96 994.04 538 994.04 508.02 81.02 765.97 71.02 996.01 781 998.99 781 1221.02 52.02 1495.99 42 1499 995 1315.01 995 1319 258.01 1312.02 258.01 1082.01 995 909.02 995 676.01 277.01 670.01 277.01 700.96 994.04"/>
  </g>
</svg>
