<svg xmlns="http://www.w3.org/2000/svg" viewBox="0 0 128 128"><circle fill="#fff" cx="64" cy="64" r="64"/><path d="M21.23 91.64q0 4.1-3.52 4.1t-3.52-4.2v-54.3q0-4.3 3.32-4.3h41.6q4.3 0 4.3 3.71 0 3.32-4.3 3.32H21.23v16.6h25.88q4.88 0 4.88 3.71 0 3.32-4.88 3.32H21.23zm46.03-.88V37.24q0-4.3 3.32-4.3h18.36q11.91 0 17.68 3.32t5.76 12.15q0 7.2-3.91 10.9 8 4 8 15.92v1.86q0 10.65-5.76 14.31t-18.84 3.65H70.58q-3.32 0-3.32-4.29zm21.68-33.2q9.47 0 12.94-1.71t3.47-7.13q0-5.32-3.47-7T88.94 40H74.29v17.55zm4.69 7H74.29V88h17.58q10.74 0 14.16-1.9t3.42-9v-1.58q0-7.13-3.17-9t-12.65-1.93z"/></svg>